<?xml version="1.0" encoding="UTF-8" standalone="no"?>
<!-- Created with Inkscape (http://www.inkscape.org/) -->

<svg
   xmlns:dc="http://purl.org/dc/elements/1.1/"
   xmlns:cc="http://creativecommons.org/ns#"
   xmlns:rdf="http://www.w3.org/1999/02/22-rdf-syntax-ns#"
   xmlns:svg="http://www.w3.org/2000/svg"
   xmlns="http://www.w3.org/2000/svg"
   xmlns:sodipodi="http://sodipodi.sourceforge.net/DTD/sodipodi-0.dtd"
   xmlns:inkscape="http://www.inkscape.org/namespaces/inkscape"
   id="svg3738"
   width="16"
   height="16"
   version="1.1"
   sodipodi:docname="transmission-tray-icon-symbolic.svg"
   inkscape:version="0.92.5 (2060ec1f9f, 2020-04-08)">
  <defs
     id="defs8" />
  <sodipodi:namedview
     pagecolor="#ffffff"
     bordercolor="#666666"
     borderopacity="1"
     objecttolerance="10"
     gridtolerance="10"
     guidetolerance="10"
     inkscape:pageopacity="0"
     inkscape:pageshadow="2"
     inkscape:window-width="1920"
     inkscape:window-height="1021"
     id="namedview6"
     showgrid="false"
     inkscape:zoom="14.75"
     inkscape:cx="0.44067797"
     inkscape:cy="8"
     inkscape:window-x="0"
     inkscape:window-y="0"
     inkscape:window-maximized="1"
     inkscape:current-layer="svg3738" />
  <metadata
     id="metadata13">
    <rdf:RDF>
      <cc:Work
         rdf:about="">
        <dc:format>image/svg+xml</dc:format>
        <dc:type
           rdf:resource="http://purl.org/dc/dcmitype/StillImage" />
        <dc:title />
      </cc:Work>
    </rdf:RDF>
  </metadata>
  <path
     id="path3712-8"
     d="m4.0625 1c-0.554 0-1 0.446-1 1s0.446 1 1 1h3.0312l-0.0625 4h-4.1562l-1.875 8v1h14.062v-0.9375l-1.75-8.0625h-4.25v3h2l-2.9688 3.0625-3.0312-3.0625h1.9688l0.0625-3h1.9688v-4h3c0.554 0 1-0.446 1-1s-0.446-1-1-1h-8z"
     style="color:#ffffff;fill-rule:evenodd;fill:#fff;opacity:.3" />
  <path
     id="path3712"
     d="m4.0625 0c-0.554 0-1 0.446-1 1s0.446 1 1 1h3.0312l-0.0625 4h-4.1562l-1.875 8v1h14.062v-0.9375l-1.75-8.0625h-4.25v3h2l-2.9688 3.0625-3.0312-3.0625h1.9688l0.0625-3h1.9688v-4h3c0.554 0 1-0.446 1-1s-0.446-1-1-1h-8z"
     style="color:#ffffff;fill-rule:evenodd;fill:#808080;fill-opacity:1" />
</svg>
